<?xml version="1.0" standalone="no"?>
<!DOCTYPE svg PUBLIC "-//W3C//DTD SVG 20010904//EN"
 "http://www.w3.org/TR/2001/REC-SVG-20010904/DTD/svg10.dtd">
<svg version="1.0" xmlns="http://www.w3.org/2000/svg"
 width="260.000000pt" height="260.000000pt" viewBox="0 0 260.000000 260.000000"
 preserveAspectRatio="xMidYMid meet">
<metadata>
Created by potrace 1.14, written by Peter Selinger 2001-2017
</metadata>
<g transform="translate(0.000000,260.000000) scale(0.100000,-0.100000)"
fill="#000000" stroke="none">
<path d="M1141 2577 c-6 -8 -8 -17 -4 -20 3 -4 1 -7 -6 -7 -7 0 -9 -5 -5 -12
4 -7 3 -8 -5 -4 -6 4 -9 11 -6 16 12 19 -16 19 -32 0 -10 -11 -21 -20 -26 -20
-5 0 -4 6 2 14 10 12 8 13 -8 9 -12 -3 -19 -8 -17 -12 2 -3 -3 -13 -12 -21
-14 -13 -15 -12 -9 3 3 9 3 17 -2 17 -5 0 -11 -10 -14 -22 -5 -17 -9 -19 -21
-9 -11 9 -16 9 -22 0 -5 -8 -3 -9 6 -4 8 5 11 4 6 -3 -4 -6 -14 -8 -23 -5 -12
5 -14 3 -8 -7 5 -9 4 -11 -4 -6 -9 6 -9 11 0 22 6 8 9 17 5 21 -3 3 -6 1 -6
-6 0 -7 -6 -11 -13 -8 -10 4 -13 -2 -9 -19 2 -14 0 -24 -7 -24 -7 0 -9 5 -6
10 7 12 -31 8 -42 -5 -5 -4 -2 -5 6 0 10 6 12 4 7 -4 -6 -9 -11 -9 -24 1 -11
9 -14 9 -9 1 5 -8 -1 -15 -19 -19 -19 -5 -22 -9 -12 -15 9 -6 9 -9 1 -9 -6 0
-14 4 -17 9 -3 5 -14 11 -24 13 -15 4 -19 0 -18 -16 1 -22 -5 -23 -38 -10 -14
5 -17 4 -12 -4 4 -7 2 -12 -4 -12 -6 0 -8 -5 -4 -12 6 -10 5 -10 -8 -1 -15 13
-28 8 -28 -9 0 -5 4 -6 10 -3 6 3 7 -1 4 -10 -6 -14 -8 -14 -20 2 -13 17 -14
17 -20 -5 -5 -18 -9 -20 -15 -10 -7 10 -9 9 -9 -4 0 -10 -5 -15 -13 -12 -8 3
-20 -3 -28 -13 -13 -17 -13 -17 6 -3 19 14 19 14 6 -3 -8 -10 -20 -16 -28 -13
-16 6 -16 1 -2 -27 9 -20 8 -19 -9 2 -19 24 -20 24 -26 3 -4 -11 -15 -24 -25
-27 -10 -3 -27 -16 -37 -28 l-19 -22 23 19 c12 11 22 15 22 10 0 -13 -39 -36
-50 -29 -6 3 -7 -1 -4 -9 4 -11 0 -16 -14 -16 -12 0 -24 -5 -28 -12 -4 -7 -3
-8 4 -4 12 7 8 -32 -4 -43 -4 -3 -4 2 -1 12 5 13 3 17 -5 14 -7 -2 -12 -10
-10 -17 2 -7 -3 -10 -12 -7 -19 7 -28 -3 -16 -18 7 -8 3 -18 -12 -31 -12 -10
-18 -14 -15 -7 4 6 4 14 -1 17 -4 2 -9 -5 -9 -16 -3 -28 -12 -35 -24 -18 -9
12 -10 12 -5 -3 3 -10 6 -21 6 -23 0 -3 5 -2 12 2 6 4 8 3 4 -4 -3 -6 -15 -9
-26 -7 -14 3 -17 -1 -13 -12 5 -12 3 -14 -8 -8 -11 7 -11 5 1 -10 14 -17 13
-18 -4 -12 -14 6 -17 4 -12 -8 3 -8 1 -15 -4 -15 -6 0 -10 5 -10 12 0 6 -3 9
-6 5 -3 -3 1 -19 9 -36 9 -18 11 -33 6 -37 -5 -3 -8 0 -7 7 2 6 -3 14 -11 17
-10 3 -12 0 -7 -13 6 -16 4 -16 -10 -4 -16 13 -16 12 -4 -11 12 -22 12 -24 -2
-12 -13 10 -18 10 -24 1 -4 -7 -3 -9 3 -6 6 4 13 0 17 -8 3 -8 1 -15 -5 -15
-6 0 -7 -5 -3 -12 5 -8 2 -9 -9 -5 -9 3 -19 2 -22 -3 -4 -6 2 -10 11 -10 17 0
11 -14 -7 -16 -5 -1 -12 -2 -15 -3 -4 0 -1 -8 6 -16 9 -11 9 -15 1 -15 -8 0
-9 -5 -1 -19 8 -17 7 -19 -14 -17 -17 2 -23 -1 -19 -11 3 -7 -3 -24 -13 -36
l-19 -22 21 18 c18 15 22 16 27 3 3 -8 -1 -20 -9 -27 -12 -9 -12 -15 -2 -28
12 -14 11 -14 -4 -3 -24 19 -41 6 -27 -20 10 -18 9 -20 -5 -15 -9 4 -16 2 -16
-3 0 -9 15 -14 33 -11 5 1 6 -3 2 -9 -4 -6 -14 -9 -22 -8 -9 2 -17 -3 -19 -10
-1 -7 0 -8 3 -2 2 5 9 8 14 4 5 -3 3 -14 -5 -26 -8 -11 -12 -31 -10 -45 3 -18
1 -23 -8 -17 -7 4 -10 4 -6 -1 4 -4 3 -14 -4 -22 -6 -7 -8 -16 -4 -20 3 -3 6
-1 6 5 0 7 8 12 18 12 14 0 15 -2 2 -10 -8 -5 -11 -10 -7 -10 5 0 1 -7 -7 -16
-9 -8 -14 -20 -11 -25 3 -5 1 -17 -5 -28 -8 -16 -6 -23 12 -35 18 -13 19 -16
6 -16 -9 0 -20 -5 -24 -12 -4 -7 -3 -8 4 -4 14 9 15 1 3 -23 -7 -13 -6 -18 4
-18 8 0 11 5 8 10 -3 6 -1 7 5 3 12 -7 -2 -42 -23 -59 -5 -4 3 -5 20 -3 27 5
28 4 13 -8 -20 -15 -25 -31 -6 -20 7 5 8 3 2 -7 -12 -20 -14 -39 -3 -39 5 0 9
-7 9 -15 0 -8 -6 -15 -12 -15 -10 0 -10 -2 0 -9 7 -4 15 -22 17 -40 3 -21 1
-29 -7 -25 -7 4 -8 3 -4 -4 4 -7 14 -12 22 -12 14 0 13 -2 0 -16 -21 -20 -21
-30 0 -14 12 11 15 11 12 -1 -2 -8 3 -13 10 -11 8 1 11 -2 7 -8 -4 -6 -14 -9
-22 -5 -13 4 -14 3 -4 -9 7 -8 20 -12 29 -9 14 4 15 3 2 -5 -8 -6 -17 -9 -21
-6 -4 2 -11 0 -14 -6 -4 -6 -1 -9 7 -8 7 2 12 -2 11 -9 -2 -7 3 -10 11 -7 11
4 14 -4 12 -31 -1 -26 4 -39 17 -46 9 -6 15 -14 12 -19 -5 -8 12 -48 26 -60 3
-3 8 -13 12 -23 4 -10 11 -16 16 -12 6 3 6 -6 1 -24 -7 -24 -5 -29 6 -24 12 5
19 -13 15 -39 0 -5 4 -8 10 -8 5 0 7 -5 3 -12 -4 -7 -3 -8 5 -4 6 4 9 12 6 17
-4 5 -4 9 -1 9 3 0 10 -10 17 -21 9 -17 8 -20 -3 -13 -11 7 -11 5 0 -9 8 -9
10 -22 6 -29 -4 -7 -4 -10 1 -6 4 4 21 -12 37 -36 28 -44 39 -49 68 -31 13 8
13 7 1 -8 -9 -12 -10 -17 -2 -17 7 0 10 -4 6 -9 -3 -6 4 -15 15 -21 11 -6 18
-15 15 -21 -4 -5 -1 -9 5 -9 6 0 8 -5 4 -12 -5 -7 -3 -8 7 -2 25 15 35 12 37
-14 3 -33 29 -62 50 -55 10 4 13 2 8 -5 -4 -7 -2 -12 4 -12 6 0 8 -4 5 -10 -3
-5 -1 -10 5 -10 7 0 10 7 7 15 -4 8 -2 17 4 20 5 4 8 1 7 -6 -2 -7 4 -13 12
-14 8 0 16 -8 18 -19 3 -11 0 -16 -7 -11 -6 3 -8 11 -5 17 4 7 2 8 -4 4 -6 -4
-9 -13 -5 -21 6 -18 9 -18 32 -5 14 7 23 5 36 -10 9 -10 14 -23 10 -29 -3 -7
0 -8 9 -5 10 4 16 1 16 -10 0 -10 5 -13 17 -9 12 5 14 3 8 -8 -7 -11 -5 -11
10 1 11 9 16 10 11 3 -5 -9 0 -13 14 -13 13 0 19 4 14 12 -4 7 -3 8 5 4 9 -6
9 -11 0 -22 -6 -8 -10 -14 -8 -15 36 -7 40 -6 35 7 -3 8 0 14 5 14 7 0 9 -11
6 -27 -5 -27 -5 -27 10 -8 15 20 15 19 10 -3 -4 -19 -3 -21 9 -11 11 9 14 8
15 -2 0 -8 4 -5 9 6 8 19 9 19 9 -3 1 -22 19 -26 33 -7 5 6 8 5 8 -3 0 -7 8
-21 17 -30 15 -16 16 -16 11 0 -12 31 7 29 35 -4 16 -18 26 -27 22 -21 -3 7
-2 13 4 13 5 0 12 -6 14 -12 3 -7 6 -2 7 12 l2 25 7 -25 c6 -20 13 -25 38 -23
20 1 31 -3 29 -10 -1 -7 -1 -9 1 -5 2 3 16 4 29 2 18 -3 23 -1 18 7 -4 8 -3 9
5 5 6 -4 9 -11 6 -16 -3 -5 0 -12 6 -16 7 -4 10 -3 6 2 -3 5 5 14 17 20 17 8
23 7 23 -2 0 -7 -4 -11 -9 -8 -4 3 -8 1 -8 -4 0 -10 49 -9 108 2 25 5 32 3 32
-9 0 -9 5 -13 10 -10 6 4 8 11 4 16 -3 5 0 8 8 7 7 -2 12 3 10 10 -1 8 2 11 8
7 8 -5 8 -11 0 -20 -8 -9 -6 -14 5 -19 11 -4 14 -2 9 6 -5 7 0 9 14 6 12 -4
25 -2 28 3 3 5 10 9 16 9 7 0 7 -4 -1 -13 -8 -10 -7 -14 4 -14 8 0 12 4 9 8
-2 4 11 6 31 5 19 -2 32 0 29 5 -3 5 1 9 10 9 8 0 16 6 19 13 3 9 8 9 18 -2
12 -12 12 -13 0 -6 -10 5 -12 4 -7 -4 4 -6 13 -8 19 -4 7 4 18 8 25 9 8 2 20
11 29 21 8 10 12 12 8 6 -4 -9 1 -13 14 -13 12 0 21 5 21 11 0 5 -4 8 -8 5 -5
-3 -9 1 -9 9 0 9 4 11 11 6 6 -4 25 -11 41 -15 29 -7 29 -7 10 8 -19 15 -19
16 -1 9 13 -4 17 -3 12 5 -5 8 -2 10 8 6 9 -3 13 -11 10 -18 -3 -6 0 -4 8 4 7
8 18 15 23 16 32 1 66 18 61 30 -3 7 0 16 6 20 6 4 8 3 5 -3 -7 -12 16 -36 26
-27 3 3 3 12 1 19 -7 17 12 29 22 14 5 -8 3 -9 -6 -4 -9 5 -11 4 -6 -3 11 -18
15 -15 27 15 10 28 11 28 26 8 15 -20 15 -20 10 3 -6 23 -5 24 15 5 21 -18 21
-18 8 6 -7 15 -8 21 -1 17 6 -4 11 -2 11 4 0 6 5 8 10 5 6 -4 7 -11 4 -17 -4
-7 -2 -8 5 -4 6 4 8 12 5 18 -5 8 -1 9 11 4 14 -5 16 -4 7 7 -9 11 -7 13 11
12 27 -3 49 13 40 28 -4 6 0 8 11 4 11 -4 15 -3 10 4 -4 8 1 9 17 4 23 -7 23
-7 4 8 -19 15 -19 16 6 13 27 -3 37 22 15 36 -8 6 -8 8 1 8 6 0 18 -6 25 -13
11 -10 17 -9 32 7 16 16 16 18 3 13 -9 -3 -17 -2 -17 3 0 6 5 10 11 10 5 0 7
5 4 10 -3 6 5 10 19 10 15 0 30 8 36 20 6 11 15 18 20 15 5 -3 11 -1 14 4 4 5
1 13 -5 17 -8 5 -9 3 -4 -6 5 -9 4 -11 -4 -6 -9 6 -9 11 0 22 9 12 15 12 27 2
10 -8 13 -8 9 -2 -8 14 16 37 27 27 4 -4 4 1 0 11 -6 16 -8 17 -16 2 -5 -9
-13 -16 -19 -16 -5 0 0 10 11 22 12 13 28 23 37 23 9 0 18 7 20 15 4 13 3 13
-6 0 -7 -9 -11 -10 -11 -3 0 6 5 15 11 19 8 4 7 9 -2 15 -10 6 -10 9 -2 9 7 0
17 -8 22 -18 8 -13 9 -7 6 23 -3 22 -2 36 3 30 14 -20 29 -14 24 10 -3 20 -1
23 19 18 19 -4 21 -3 9 6 -8 6 -10 11 -5 11 6 0 3 5 -5 10 -12 8 -9 10 10 8
22 -3 25 1 25 29 0 28 2 30 20 21 11 -6 17 -7 13 -3 -4 5 -3 14 3 22 6 7 8 13
4 13 -4 0 -1 8 6 17 9 11 10 14 2 9 -9 -5 -12 0 -11 18 2 21 5 23 23 14 19
-11 20 -10 2 10 -14 15 -15 22 -6 28 8 4 10 3 5 -4 -4 -7 -5 -12 -2 -12 3 0
10 10 17 21 6 12 7 19 2 16 -5 -4 -10 0 -10 7 0 9 7 12 16 9 13 -5 13 -3 4 7
-11 12 -7 43 6 36 3 -2 13 3 21 12 13 14 12 15 -3 9 -9 -3 -17 -2 -17 3 0 6 4
10 8 10 5 0 9 14 11 30 4 76 5 78 21 72 13 -5 13 -4 0 13 -9 11 -10 16 -2 11
7 -4 12 -2 12 8 0 8 3 23 6 33 3 10 -2 7 -10 -7 -8 -14 -15 -20 -16 -13 0 6
12 25 26 42 14 17 21 31 16 31 -6 0 -12 -6 -15 -12 -2 -7 -7 -11 -10 -8 -3 3
3 22 13 43 10 20 14 35 9 31 -11 -6 -11 -4 -13 63 -1 30 2 49 7 46 5 -3 7 0 5
8 -3 8 -12 12 -19 11 -8 -2 -10 0 -6 5 5 4 13 8 18 8 5 0 8 5 7 10 -2 6 -6 9
-10 7 -5 -1 -8 7 -8 18 0 11 -5 20 -12 20 -6 0 -3 7 8 16 17 14 17 15 1 10
-11 -4 -16 -2 -11 5 3 6 15 9 25 6 11 -3 17 -1 13 4 -3 5 -15 9 -27 9 -18 0
-19 2 -7 10 11 7 11 10 2 10 -7 0 -10 5 -7 10 4 6 11 7 17 4 7 -4 8 -2 4 5 -4
6 -12 9 -17 6 -5 -4 -9 -1 -9 4 0 6 4 11 8 11 4 0 8 9 9 20 1 11 -3 20 -8 20
-6 0 -7 4 -4 10 3 5 0 7 -8 4 -17 -6 -18 26 -2 39 6 5 1 7 -12 4 -15 -3 -20
-1 -16 9 3 8 9 12 13 9 5 -3 12 0 16 6 4 8 3 9 -4 5 -7 -4 -12 -3 -12 3 0 6
-8 8 -17 5 -10 -3 -8 1 5 8 l23 14 -26 14 c-18 10 -22 16 -13 22 10 6 10 8 1
8 -7 0 -10 7 -7 15 4 8 -1 17 -10 21 -9 3 -16 10 -16 16 0 5 4 7 8 4 4 -2 8 4
8 14 0 14 -3 16 -13 8 -11 -8 -12 -7 -7 7 6 14 4 16 -6 10 -10 -6 -12 -4 -7 8
3 10 2 17 -3 17 -5 0 -6 7 -3 17 4 11 3 14 -5 9 -7 -4 -12 -3 -12 3 0 5 3 11
8 14 4 2 2 2 -5 1 -6 -2 -14 4 -17 12 -9 24 -7 31 4 14 5 -8 10 -10 10 -4 0
19 -13 24 -28 11 -13 -10 -14 -9 -3 11 11 20 10 27 -4 42 -10 11 -24 16 -33
12 -15 -5 -16 -4 -2 13 8 10 10 16 3 12 -11 -7 -30 27 -25 45 1 4 -7 12 -18
18 -11 6 -17 18 -15 30 5 24 2 25 -16 3 -9 -11 -10 -14 -2 -9 9 5 11 2 7 -9
-8 -19 -14 -14 -19 12 -1 10 -7 17 -13 16 -11 -3 -11 15 1 34 5 8 1 11 -11 8
-19 -3 -55 28 -45 39 4 3 1 6 -6 6 -7 0 -9 5 -6 10 4 6 1 9 -7 8 -7 -2 -12 3
-10 10 1 8 -2 11 -7 7 -12 -7 -33 29 -23 40 4 5 1 5 -6 1 -13 -8 -9 -19 15
-48 10 -11 11 -18 3 -23 -6 -4 -9 -1 -8 7 2 7 -3 12 -10 10 -8 -1 -11 1 -8 6
8 13 -9 33 -30 36 -13 2 -18 10 -16 23 2 12 -4 23 -13 27 -10 3 -13 11 -9 18
6 10 4 11 -7 1 -19 -19 -29 -16 -29 10 0 17 -2 19 -9 7 -6 -8 -7 -19 -4 -25 3
-5 -6 2 -20 17 -15 14 -36 29 -47 33 -11 3 -20 13 -20 22 0 13 -3 13 -15 3 -9
-7 -18 -10 -22 -6 -3 3 -2 6 4 6 5 0 10 7 10 14 0 11 -5 12 -17 6 -20 -10 -42
2 -38 21 2 8 -6 14 -19 15 -12 1 -20 -3 -17 -7 3 -5 -2 -6 -10 -3 -9 3 -13 10
-10 15 3 5 -3 6 -12 2 -12 -4 -15 -3 -10 5 4 7 1 12 -8 12 -9 0 -16 5 -16 12
0 6 -3 8 -7 5 -3 -4 -15 1 -26 10 -11 10 -17 13 -14 7 10 -17 -19 -39 -29 -23
-4 8 -3 9 4 5 7 -4 12 -2 12 4 0 7 -8 9 -20 5 -13 -4 -20 -2 -20 7 0 8 -9 14
-19 14 -11 0 -18 -4 -15 -7 2 -4 0 -11 -6 -14 -6 -4 -10 -3 -9 2 1 4 -2 19 -7
32 -7 22 -8 23 -14 6 -4 -13 -18 -19 -41 -21 -19 -1 -28 0 -21 3 6 3 12 12 11
21 0 11 -2 12 -6 5 -6 -15 -33 -17 -33 -3 0 6 -4 10 -10 10 -5 0 -7 -8 -3 -17
5 -16 4 -17 -8 -2 -8 9 -23 19 -34 23 -19 6 -19 6 -1 -8 18 -14 18 -15 -3 -13
-11 1 -21 5 -21 10 0 4 -4 5 -10 2 -5 -3 -10 -1 -10 6 0 7 -6 5 -13 -6 -11
-14 -16 -15 -22 -5 -5 9 -4 11 3 6 8 -5 10 -1 5 9 -4 12 -8 13 -13 5 -4 -7
-21 -10 -43 -6 -20 3 -39 1 -42 -4 -3 -6 1 -7 9 -4 10 4 16 1 16 -7 0 -7 -3
-9 -7 -6 -3 4 -12 2 -20 -5 -11 -9 -13 -8 -11 2 2 8 -5 16 -16 18 -10 2 -16 0
-12 -6 10 -16 -28 -8 -41 8 -10 13 -12 13 -18 -2 -4 -10 -11 -15 -17 -12 -5 3
-4 11 3 20 6 8 9 14 6 14 -2 0 -10 -6 -16 -13z m-38 -32 c-3 -9 -8 -14 -10
-11 -3 3 -2 9 2 15 9 16 15 13 8 -4z m639 -59 c4 3 8 1 11 -3 3 -5 -4 -9 -17
-9 -15 0 -22 6 -23 21 -2 18 -1 19 11 3 7 -10 15 -15 18 -12z m108 -30 c0 -3
-4 -8 -10 -11 -5 -3 -10 -1 -10 4 0 6 5 11 10 11 6 0 10 -2 10 -4z m115 -104
c-3 -3 -11 0 -18 7 -9 10 -8 11 6 5 10 -3 15 -9 12 -12z m104 -36 c9 -11 9
-16 0 -22 -8 -4 -9 -3 -5 4 4 7 2 12 -3 12 -6 0 -11 5 -11 10 0 14 5 13 19 -4z
m261 -251 c0 -2 -9 -3 -19 -2 -11 0 -18 5 -15 9 4 6 34 0 34 -7z m-6 -23 c3
-5 -1 -9 -9 -9 -8 0 -12 4 -9 9 3 4 7 8 9 8 2 0 6 -4 9 -8z m67 -94 c-10 -11
-11 -10 -6 5 4 10 2 17 -4 17 -6 0 -11 5 -11 12 0 8 6 6 17 -5 14 -14 15 -19
4 -29z m-2261 -228 c0 -5 -2 -10 -4 -10 -3 0 -8 5 -11 10 -3 6 -1 10 4 10 6 0
11 -4 11 -10z m-39 -97 c13 -16 12 -17 -3 -4 -10 7 -18 15 -18 17 0 8 8 3 21
-13z m2463 -74 c-3 -5 -10 -7 -15 -3 -5 3 -7 10 -3 15 3 5 10 7 15 3 5 -3 7
-10 3 -15z m-2486 -74 c-3 -3 -9 2 -12 12 -6 14 -5 15 5 6 7 -7 10 -15 7 -18z
m-13 -75 c-3 -5 -11 -10 -16 -10 -6 0 -7 5 -4 10 3 6 11 10 16 10 6 0 7 -4 4
-10z m-10 -44 c0 -14 -5 -22 -12 -19 -9 4 -10 10 -2 24 13 24 14 24 14 -5z
m125 -601 c0 -5 -5 -3 -10 5 -5 8 -10 20 -10 25 0 6 5 3 10 -5 5 -8 10 -19 10
-25z m2290 -19 c0 -11 -19 -15 -25 -6 -3 5 1 10 9 10 9 0 16 -2 16 -4z m-43
-61 c0 -8 -4 -12 -9 -9 -5 3 -6 10 -3 15 9 13 12 11 12 -6z m-2132 -105 c-7
-11 5 -41 15 -35 4 3 7 -3 6 -13 0 -10 6 -17 15 -16 11 1 15 -5 11 -18 -4 -16
-7 -14 -28 14 -26 35 -26 33 -29 65 -1 12 2 20 7 17 4 -3 6 -9 3 -14z m1920
-161 c-3 -12 -7 -24 -10 -27 -3 -3 -3 5 -1 19 6 30 5 29 10 29 3 0 3 -10 1
-21z m-1719 -79 c9 0 12 -5 9 -10 -8 -13 -35 6 -34 24 0 7 2 6 6 -1 2 -7 11
-13 19 -13z m1289 -209 c-3 -2 -16 -6 -28 -8 -15 -2 -18 0 -9 5 14 9 45 12 37
3z m-725 -55 c0 -3 -4 -8 -10 -11 -5 -3 -10 -1 -10 4 0 6 5 11 10 11 6 0 10
-2 10 -4z m513 -6 c3 6 5 6 3 -1 -3 -17 -33 -20 -33 -3 0 10 4 11 13 3 8 -7
14 -6 17 1z m-473 -4 c0 -3 -4 -8 -10 -11 -5 -3 -10 -1 -10 4 0 6 5 11 10 11
6 0 10 -2 10 -4z m378 -23 c-13 -16 -15 -16 -21 0 -3 7 3 13 14 13 13 0 15 -3
7 -13z"/>
<path d="M1546 2552 c-3 -5 1 -9 9 -9 8 0 12 4 9 9 -3 4 -7 8 -9 8 -2 0 -6 -4
-9 -8z"/>
<path d="M720 2441 c0 -6 4 -13 10 -16 6 -3 7 1 4 9 -7 18 -14 21 -14 7z"/>
<path d="M1870 2439 c0 -5 5 -7 10 -4 6 3 10 8 10 11 0 2 -4 4 -10 4 -5 0 -10
-5 -10 -11z"/>
<path d="M1940 2405 c0 -7 61 -37 66 -33 2 3 -12 12 -31 21 -19 9 -35 15 -35
12z"/>
<path d="M2096 2292 c-3 -5 1 -9 9 -9 8 0 12 4 9 9 -3 4 -7 8 -9 8 -2 0 -6 -4
-9 -8z"/>
<path d="M310 2099 c0 -5 5 -7 10 -4 6 3 10 8 10 11 0 2 -4 4 -10 4 -5 0 -10
-5 -10 -11z"/>
<path d="M86 1675 c-11 -8 -15 -15 -9 -15 6 0 16 7 23 15 16 19 11 19 -14 0z"/>
<path d="M2578 1423 c6 -2 9 -10 6 -15 -4 -7 -2 -8 5 -4 13 9 5 26 -12 25 -9
0 -8 -2 1 -6z"/>
<path d="M150 706 c0 -2 7 -7 16 -10 8 -3 12 -2 9 4 -6 10 -25 14 -25 6z"/>
<path d="M2355 560 c3 -5 8 -10 11 -10 2 0 4 5 4 10 0 6 -5 10 -11 10 -5 0 -7
-4 -4 -10z"/>
<path d="M426 367 c3 -10 9 -15 12 -12 3 3 0 11 -7 18 -10 9 -11 8 -5 -6z"/>
<path d="M590 241 c0 -5 7 -12 16 -15 14 -5 15 -4 4 9 -14 17 -20 19 -20 6z"/>
<path d="M906 87 c3 -10 9 -15 12 -12 3 3 0 11 -7 18 -10 9 -11 8 -5 -6z"/>
<path d="M1240 10 c-9 -6 -10 -10 -3 -10 6 0 15 5 18 10 8 12 4 12 -15 0z"/>
</g>
</svg>
